# xmcd
#
# Track frame offsets: 
#        150
#        10410
#        24525
#        34389
#        43610
#        60172
#        67763
#        82005
#        94154
#        110569
#        120832
#        134975
#
# Disc length: 2236 seconds
#
# Revision: 0
# Processed by: cddbd v1.5.2PL0 Copyright (c) Steve Scherf et al.
# Submitted via: ExactAudioCopy v1.0b1
#
DISCID=9c08ba0c
DTITLE=Ian Collard - Swamp Stomp and Boogie
DYEAR=2014
DGENRE=Blues
TTITLE0=Bullyin' Well
TTITLE1=Come Back Baby
TTITLE2=Good Rockin'
TTITLE3=So Much Trouble
TTITLE4=Honey Bee
TTITLE5=All Night Long
TTITLE6=Boogie Disease
TTITLE7=Jack O' Diamonds
TTITLE8=Up All Night
TTITLE9=I Don't Know Why
TTITLE10=Hey Now Baby
TTITLE11=Can't Be With You
EXTD=
EXTT0=
EXTT1=
EXTT2=
EXTT3=
EXTT4=
EXTT5=
EXTT6=
EXTT7=
EXTT8=
EXTT9=
EXTT10=
EXTT11=
PLAYORDER=
